HIERARCHY
ROOT Hips
{
 OFFSET 0.000000 0.000000 0.000000
 CHANNELS 6 Xposition Yposition Zposition Yrotation Xrotation Zrotation
 JOINT Chest
 {
  OFFSET 0.000000 9.585900 0.002600
  CHANNELS 3 Yrotation Xrotation Zrotation
  JOINT Chest2
  {
   OFFSET 0.000000 9.601200 -0.005300
   CHANNELS 3 Yrotation Xrotation Zrotation
   JOINT Chest3
   {
    OFFSET 0.000000 9.561800 0.000000
    CHANNELS 3 Yrotation Xrotation Zrotation
    JOINT Chest4
    {
     OFFSET 0.000000 9.552100 0.000000
     CHANNELS 3 Yrotation Xrotation Zrotation
     JOINT Neck
     {
      OFFSET 0.000000 14.453000 0.000000
      CHANNELS 3 Yrotation Xrotation Zrotation
      JOINT Head
      {
       OFFSET 0.000000 8.936500 -0.011300
       CHANNELS 3 Yrotation Xrotation Zrotation
       End Site
       {
        OFFSET 0.000000 17.073600 -0.006000
       }
      }
     }
     JOINT RightCollar
     {
      OFFSET -2.921100 9.558500 0.000000
      CHANNELS 3 Yrotation Xrotation Zrotation
      JOINT RightShoulder
      {
       OFFSET -13.519700 0.000000 0.000000
       CHANNELS 3 Yrotation Xrotation Zrotation
       JOINT RightElbow
       {
        OFFSET 0.000000 -29.696600 0.000000
        CHANNELS 3 Yrotation Xrotation Zrotation
        JOINT RightWrist
        {
         OFFSET 0.000000 -24.004700 0.000000
         CHANNELS 3 Yrotation Xrotation Zrotation
         End Site
         {
          OFFSET 0.000000 -17.728500 0.000000
         }
        }
       }
      }
     }
     JOINT LeftCollar
     {
      OFFSET 2.921100 9.558500 0.000000
      CHANNELS 3 Yrotation Xrotation Zrotation
      JOINT LeftShoulder
      {
       OFFSET 13.519700 0.000000 0.000000
       CHANNELS 3 Yrotation Xrotation Zrotation
       JOINT LeftElbow
       {
        OFFSET 0.000000 -29.696600 0.000000
        CHANNELS 3 Yrotation Xrotation Zrotation
        JOINT LeftWrist
        {
         OFFSET 0.000000 -24.004700 0.000000
         CHANNELS 3 Yrotation Xrotation Zrotation
         End Site
         {
          OFFSET 0.000000 -17.728500 0.000000
         }
        }
       }
      }
     }
    }
   }
  }
 }
 JOINT RightHip
 {
  OFFSET -7.771700 -0.012900 -0.001300
  CHANNELS 3 Yrotation Xrotation Zrotation
  JOINT RightKnee
  {
   OFFSET 0.000000 -40.869800 0.001200
   CHANNELS 3 Yrotation Xrotation Zrotation
   JOINT RightAnkle
   {
    OFFSET 0.000000 -39.717900 0.002100
    CHANNELS 3 Yrotation Xrotation Zrotation
    JOINT RightToe
    {
     OFFSET 0.000000 -4.965400 11.033500
     CHANNELS 3 Yrotation Xrotation Zrotation
     End Site
     {
      OFFSET 0.000000 -1.423100 5.872300
     }
    }
   }
  }
 }
 JOINT LeftHip
 {
  OFFSET 7.771700 -0.012900 -0.001300
  CHANNELS 3 Yrotation Xrotation Zrotation
  JOINT LeftKnee
  {
   OFFSET 0.000000 -40.869800 0.001200
   CHANNELS 3 Yrotation Xrotation Zrotation
   JOINT LeftAnkle
   {
    OFFSET 0.000000 -39.717900 0.002100
    CHANNELS 3 Yrotation Xrotation Zrotation
    JOINT LeftToe
    {
     OFFSET 0.000000 -4.965400 11.033500
     CHANNELS 3 Yrotation Xrotation Zrotation
     End Site
     {
      OFFSET 0.000000 -1.423100 5.872300
     }
    }
   }
  }
 }
}
MOTION
Frames: 17
Frame Time: 0.008333
-28.538404 61.001735 25.530301 157.935283 -13.696620 1.102546 3.185556 12.239784 0.211485 0.283044 0.968315 0.065699 0.450880 1.603439 0.041861 3.269858 11.156533 0.749796 3.415244 18.338494 0.256025 3.505591 -6.334032 -0.495989 1.682802 5.783826 -4.195390 -3.410246 -11.118983 -3.484937 2.827620 -86.886869 14.344445 1.968896 4.119399 -31.492953 -4.043300 4.552302 -2.951784 17.335640 -3.165776 -4.808753 23.995586 -85.268713 -45.513546 -6.550397 3.818079 3.265799 2.226376 -55.675906 2.700679 -21.331147 71.049528 -18.139470 1.245876 -4.836753 -1.456133 -0.350421 -0.565213 0.034511 13.656446 -53.856095 0.503848 33.433741 68.860281 32.524615 -17.393090 -13.018192 0.532618 0.836633 0.574536 0.383188
-28.549628 60.996606 25.524201 157.906044 -13.702043 1.115546 3.207867 12.238180 0.192206 0.274458 0.961053 0.050814 0.459840 1.605897 0.054374 3.274479 11.119968 0.718464 3.364110 18.387086 0.300400 3.474450 -6.293113 -0.444665 1.677167 5.778204 -4.211275 -3.417824 -10.992100 -3.294044 0.274470 -87.096742 16.851928 1.903710 4.253940 -31.633527 -3.964502 4.503317 -2.944600 17.384872 -3.189364 -4.775444 29.464717 -85.258106 -51.182408 -6.461866 3.717451 3.367119 2.348914 -55.679834 2.729837 -21.551373 71.018618 -18.464637 1.199423 -4.857807 -1.374726 -0.335772 -0.547847 0.036107 13.640106 -53.842521 0.475632 33.348674 68.887800 32.499506 -17.267981 -13.152831 0.450889 0.794323 0.650302 0.393587
-28.559446 60.988527 25.515816 157.876874 -13.712072 1.128473 3.231729 12.239145 0.173962 0.271848 0.947481 0.037105 0.463425 1.614541 0.066004 3.292817 11.076461 0.695117 3.311532 18.414123 0.336337 3.437085 -6.264084 -0.398392 1.689335 5.771308 -4.212704 -3.352879 -10.867510 -3.143449 -3.576698 -87.219237 20.574040 1.838182 4.428498 -31.798948 -3.968407 4.412438 -2.977851 17.260701 -3.213698 -4.609917 34.149856 -85.183024 -55.835200 -6.380450 3.643465 3.478447 2.474083 -55.681131 2.746962 -21.744478 70.999460 -18.750471 1.144077 -4.885713 -1.278700 -0.314127 -0.528173 0.015933 13.622610 -53.827586 0.461750 33.305914 68.915617 32.507170 -17.190696 -13.297255 0.377234 0.756147 0.721026 0.398960
-28.565484 60.978069 25.505005 157.853247 -13.733556 1.127866 3.272280 12.199206 0.158992 0.276292 0.931721 0.032043 0.450356 1.651838 0.075981 3.317124 11.050715 0.692399 3.270408 18.423992 0.363369 3.386773 -6.254951 -0.360346 1.714933 5.759538 -4.202871 -3.247316 -10.753651 -3.044285 -8.472045 -87.246912 25.297047 1.763741 4.625520 -31.988159 -4.022178 4.279001 -3.051754 16.978800 -3.236342 -4.318072 37.885797 -85.054483 -59.355326 -6.313917 3.598573 3.588382 2.581690 -55.673494 2.769871 -21.924202 70.992492 -19.004518 1.110595 -4.915715 -1.222392 -0.311361 -0.511737 0.022849 13.605324 -53.808485 0.477819 33.241651 68.957587 32.491510 -17.154922 -13.449520 0.312825 0.752619 0.787657 0.410152
-28.566232 60.966308 25.489461 157.829659 -13.783533 1.111853 3.319709 12.190646 0.178485 0.274567 0.938734 0.034585 0.468332 1.600054 0.061715 3.321198 11.082205 0.706193 3.230064 18.417942 0.379680 3.339624 -6.263374 -0.333907 1.752378 5.741619 -4.183561 -3.129329 -10.656999 -3.003079 -13.658443 -87.178211 30.304135 1.663626 4.812744 -32.195542 -4.119054 4.116853 -3.163405 16.604293 -3.269798 -3.916939 40.644048 -84.887905 -61.787482 -6.266655 3.594766 3.694093 2.670082 -55.639298 2.806953 -22.095685 70.998084 -19.233139 1.083743 -4.943370 -1.164649 -0.317420 -0.503055 0.027891 13.558939 -53.765073 0.529356 33.219643 69.002076 32.501600 -17.032798 -13.611404 0.247325 0.797968 0.849331 0.428672
-28.571913 60.951700 25.474331 157.822396 -13.809888 1.121032 3.343718 12.161740 0.174962 0.275632 0.937062 0.034612 0.470234 1.597199 0.061720 3.336701 11.070385 0.707605 3.196160 18.397957 0.385897 3.301508 -6.286863 -0.319521 1.803659 5.719499 -4.154913 -3.024148 -10.584581 -3.023358 -18.424149 -87.030057 34.917349 1.532613 4.971327 -32.411533 -4.252540 3.941639 -3.304942 16.202883 -3.326717 -3.429675 42.473923 -84.704853 -63.244831 -6.241470 3.638358 3.784646 2.789624 -55.631691 2.777194 -22.242768 71.016306 -19.425671 1.036791 -4.984702 -1.087242 -0.315337 -0.480506 0.027282 13.527895 -53.740983 0.530180 33.268715 69.031087 32.558291 -16.913844 -13.744240 0.211722 0.825673 0.887302 0.425121
-28.575340 60.936070 25.456095 157.803852 -13.849013 1.129399 3.379724 12.142192 0.181534 0.276474 0.936058 0.034743 0.465653 1.610342 0.059318 3.339115 11.081360 0.709655 3.186485 18.331870 0.381324 3.275045 -6.324294 -0.316013 1.887149 5.658746 -4.117283 -2.949793 -10.541253 -3.103660 -22.431334 -86.825679 38.820515 1.380202 5.102720 -32.623262 -4.400425 3.731461 -3.462219 15.819217 -3.412716 -2.877396 43.538872 -84.536352 -63.933090 -6.238978 3.732768 3.847900 2.915632 -55.612990 2.741647 -22.358788 71.045381 -19.574549 1.009136 -5.026733 -1.046618 -0.316775 -0.466833 0.022011 13.509436 -53.709130 0.552627 33.317835 69.078688 32.615465 -16.863998 -13.889788 0.177117 0.813803 0.957821 0.438057
-28.574477 60.921090 25.430744 157.760325 -13.928462 1.137285 3.443053 12.162914 0.203465 0.276885 0.935649 0.034903 0.448882 1.654124 0.050830 3.350431 11.061667 0.710733 3.182756 18.259333 0.375846 3.257719 -6.373762 -0.322010 1.988260 5.593464 -4.064721 -2.910164 -10.525921 -3.238084 -25.652926 -86.581350 41.986905 1.221211 5.214287 -32.823908 -4.578086 3.531762 -3.623987 15.488999 -3.529119 -2.279321 43.992803 -84.412076 -64.042272 -6.263298 3.875949 3.886277 3.054878 -55.553327 2.702299 -22.496075 71.074336 -19.703221 0.969535 -5.053091 -1.049932 -0.280861 -0.468203 0.031661 13.505245 -53.641172 0.607753 33.360784 69.148085 32.673218 -16.883199 -14.032452 0.158520 0.771490 0.967107 0.428096
-28.574846 60.905699 25.403643 157.747187 -14.006199 1.148983 3.469774 12.197143 0.212858 0.271671 0.950312 0.031634 0.461993 1.624304 0.055690 3.368041 11.015700 0.724417 3.148759 18.253677 0.359334 3.249164 -6.431650 -0.337568 2.075807 5.594597 -4.011690 -2.898135 -10.537999 -3.418452 -28.201527 -86.310648 44.521055 1.072325 5.316111 -33.010435 -4.813637 3.415547 -3.805564 15.241907 -3.674597 -1.654113 43.908284 -84.350732 -63.675790 -6.316752 4.049023 3.904417 3.178112 -55.501031 2.647921 -22.546050 71.134726 -19.780115 0.943433 -5.092141 -1.004739 -0.297062 -0.469952 0.017865 13.503588 -53.578936 0.649070 33.390166 69.224079 32.708003 -16.931742 -14.147973 0.144449 0.784968 0.984550 0.443424
-28.574037 60.890837 25.374727 157.738411 -14.088081 1.156643 3.481807 12.264616 0.216877 0.276865 0.935595 0.035234 0.484919 1.541685 0.079598 3.342876 11.059367 0.721260 3.140612 18.211429 0.334514 3.251507 -6.494855 -0.361359 2.200393 5.558553 -3.955730 -2.896199 -10.576810 -3.638108 -30.214296 -86.026835 46.548403 0.946520 5.418419 -33.179407 -5.042344 3.280791 -3.983986 15.077085 -3.846688 -1.015021 43.411696 -84.362666 -62.968134 -6.393823 4.227869 3.906352 3.283513 -55.447117 2.599225 -22.586337 71.204870 -19.840834 0.914170 -5.125629 -0.966278 -0.285538 -0.483167 -0.019876 13.504667 -53.505876 0.677210 33.446885 69.286217 32.766378 -16.917052 -14.273850 0.129930 0.791341 0.983901 0.448274
-28.575414 60.876277 25.347278 157.733202 -14.148391 1.170726 3.500712 12.271583 0.227752 0.275847 0.935441 0.035741 0.475340 1.547609 0.079373 3.333604 11.082259 0.716610 3.145455 18.126460 0.316332 3.264514 -6.560954 -0.389558 2.338815 5.477980 -3.883499 -2.885641 -10.636539 -3.890917 -31.805325 -85.741264 48.168298 0.850170 5.522343 -33.330069 -5.271016 3.122042 -4.135749 14.967117 -4.040960 -0.375589 42.666066 -84.450254 -62.064190 -6.487907 4.392904 3.896847 3.385035 -55.415527 2.535522 -22.632974 71.274152 -19.891993 0.875986 -5.151819 -0.953654 -0.290482 -0.497078 0.001634 13.521452 -53.450340 0.682619 33.515249 69.339091 32.828881 -16.923240 -14.385149 0.133771 0.818979 0.977925 0.445786
-28.581892 60.863027 25.319635 157.738504 -14.191388 1.208546 3.494919 12.270617 0.208373 0.278206 0.895421 0.050790 0.465541 1.591759 0.064247 3.325958 11.099537 0.711847 3.152247 18.045037 0.298506 3.284021 -6.627974 -0.417965 2.479149 5.395490 -3.805692 -2.859192 -10.710747 -4.169289 -33.058364 -85.462562 49.452557 0.779770 5.621914 -33.458172 -5.497816 2.975574 -4.266756 14.882643 -4.245808 0.247705 41.808709 -84.605025 -61.077685 -6.592034 4.534782 3.870461 3.499704 -55.400256 2.428865 -22.671610 71.347257 -19.934002 0.829888 -5.183651 -0.953532 -0.261885 -0.508379 0.006850 13.559430 -53.403014 0.639830 33.604104 69.379736 32.899005 -16.948608 -14.471788 0.157567 0.777931 0.975013 0.429460
-28.586293 60.852063 25.293261 157.749555 -14.227165 1.227460 3.486008 12.267163 0.204535 0.270917 0.900901 0.050688 0.462481 1.590142 0.064255 3.292755 11.053220 0.722518 3.180464 18.052409 0.265979 3.307828 -6.717324 -0.448666 2.641643 5.370596 -3.747253 -2.808898 -10.797076 -4.465583 -34.073618 -85.192984 50.489227 0.723820 5.713733 -33.562399 -5.688906 2.887180 -4.399028 14.803636 -4.443868 0.841390 40.918311 -84.808488 -60.081525 -6.696492 4.649688 3.821202 3.557854 -55.385989 2.364007 -22.693682 71.412871 -19.961102 0.812523 -5.212089 -0.980112 -0.248379 -0.519982 0.029496 13.602348 -53.370283 0.622617 33.625095 69.435185 32.904352 -17.013538 -14.539983 0.189032 0.753708 0.964435 0.423037
-28.593907 60.842742 25.271792 157.778826 -14.225495 1.244876 3.452557 12.233747 0.194986 0.266352 0.902408 0.047627 0.463262 1.604441 0.058632 3.282412 11.051967 0.721582 3.191355 18.045889 0.257598 3.338724 -6.849700 -0.484377 2.771864 5.283641 -3.677680 -2.722764 -10.898070 -4.767705 -34.910495 -84.935693 51.329753 0.672174 5.796398 -33.653127 -5.883828 2.734545 -4.475651 14.721145 -4.627711 1.394042 40.020882 -85.029732 -59.111476 -6.792108 4.732882 3.749178 3.577310 -55.395327 2.307660 -22.693242 71.456337 -19.969147 0.774118 -5.256205 -0.985236 -0.209391 -0.507502 0.024839 13.653994 -53.369675 0.584198 33.567792 69.476331 32.853853 -17.169370 -14.589496 0.212240 0.712969 0.959869 0.416533
-28.601381 60.837074 25.249767 157.809905 -14.227862 1.258384 3.415314 12.207312 0.184809 0.265928 0.916780 0.041584 0.461628 1.603423 0.058664 3.269713 11.051090 0.720080 3.201617 17.903312 0.242850 3.376429 -6.839892 -0.501742 2.886982 5.207120 -3.619412 -2.596862 -11.015171 -5.060689 -35.593897 -84.700455 51.995808 0.617667 5.870568 -33.734966 -6.051065 2.581423 -4.524870 14.632938 -4.804479 1.899640 39.200827 -85.229824 -58.262482 -6.873075 4.787285 3.656171 3.606965 -55.415087 2.238690 -22.742581 71.516532 -20.006069 0.731892 -5.260960 -1.002458 -0.160193 -0.539411 0.027339 13.702862 -53.366084 0.555315 33.498803 69.520327 32.790642 -17.312074 -14.627484 0.228562 0.694491 0.948188 0.416924
-28.605003 60.836381 25.223659 157.802364 -14.265013 1.265431 3.417712 12.215980 0.191984 0.255125 0.905882 0.045678 0.445865 1.577533 0.068288 3.255425 11.085174 0.707802 3.231649 17.826610 0.227478 3.417533 -6.872624 -0.528367 3.004335 5.162913 -3.583190 -2.437328 -11.146753 -5.335638 -36.166208 -84.494699 52.526903 0.557904 5.940145 -33.798782 -6.163711 2.443407 -4.563108 14.536319 -4.978454 2.355925 38.630871 -85.382336 -57.715739 -6.939768 4.822834 3.545445 3.617288 -55.402391 2.196892 -22.730528 71.590445 -19.977354 0.737813 -5.241196 -1.023041 -0.154392 -0.593561 -0.000080 13.800569 -53.334632 0.568287 33.404839 69.600165 32.687853 -17.422759 -14.666483 0.260545 0.722176 0.922470 0.433495
-28.604658 60.838995 25.199981 157.808522 -14.303772 1.238343 3.405767 12.222101 0.231306 0.248613 0.891682 0.047551 0.452657 1.604908 0.059788 3.172982 11.022614 0.730579 3.304683 17.818138 0.185525 3.457541 -6.920416 -0.556854 3.155855 5.181333 -3.583042 -2.254123 -11.285979 -5.587941 -36.664507 -84.321312 52.956340 0.499514 6.007431 -33.839202 -6.193251 2.349309 -4.614411 14.431939 -5.146220 2.758988 38.478860 -85.480374 -57.648032 -6.996456 4.847630 3.424920 3.547904 -55.368488 2.230611 -22.715443 71.631139 -19.951026 0.744841 -5.234713 -1.048902 -0.147141 -0.627870 -0.003047 13.807793 -53.306083 0.636271 33.371419 69.665287 32.622774 -17.374300 -14.715029 0.274775 0.762565 0.905842 0.448887
